<svg xmlns="http://www.w3.org/2000/svg"  viewBox="0 0 24 24" width="100px" height="100px" fill-rule="evenodd" clip-rule="evenodd" baseProfile="basic"><path fill="#4759d1" fill-rule="evenodd" d="M20.596,21h-4.937c-0.435,0-0.843-0.213-1.093-0.57	l-3.536-5.059c-0.25-0.358-0.771-0.383-1.054-0.051l-4.572,5.364C5.234,20.885,4.985,21,4.722,21H4.688	c-0.766,0-1.18-0.897-0.682-1.48l5.116-5.994c0.197-0.231,0.213-0.566,0.039-0.815L3.098,4.049C2.789,3.607,3.105,3,3.644,3H8.6	c0.435,0,0.843,0.212,1.093,0.569l3.086,4.413c0.25,0.357,0.77,0.382,1.053,0.051l4.032-4.719C18.034,3.115,18.283,3,18.546,3h0	c0.766,0,1.179,0.897,0.683,1.479l-4.56,5.346c-0.197,0.231-0.213,0.566-0.039,0.815l6.513,9.311C21.452,20.393,21.135,21,20.596,21	z" clip-rule="evenodd"/></svg>